<svg width="18" height="18" viewBox="0 0 18 18" fill="none" xmlns="http://www.w3.org/2000/svg">
<path d="M15.9628 6.20683L11.4997 5.5582L9.5046 1.51347C9.45011 1.40273 9.36046 1.31308 9.24972 1.25859C8.97198 1.12148 8.63448 1.23574 8.49562 1.51347L6.5005 5.5582L2.03741 6.20683C1.91437 6.22441 1.80187 6.28242 1.71573 6.37031C1.6116 6.47734 1.55422 6.62133 1.5562 6.77064C1.55818 6.91995 1.61935 7.06237 1.72628 7.1666L4.95538 10.3148L4.19249 14.7603C4.1746 14.8638 4.18605 14.9701 4.22552 15.0674C4.265 15.1646 4.33094 15.2488 4.41585 15.3105C4.50077 15.3722 4.60127 15.4088 4.70595 15.4163C4.81063 15.4237 4.91531 15.4017 5.00812 15.3527L9.00011 13.2539L12.9921 15.3527C13.1011 15.4107 13.2276 15.4301 13.3489 15.409C13.6548 15.3562 13.8605 15.0662 13.8077 14.7603L13.0448 10.3148L16.2739 7.1666C16.3618 7.08047 16.4198 6.96797 16.4374 6.84492C16.4849 6.5373 16.2704 6.25254 15.9628 6.20683Z" fill="#FFD33C"/>
</svg>
